<svg width="10" height="16" viewBox="0 0 10 16" fill="none" xmlns="http://www.w3.org/2000/svg">
<path d="M1.6877 6.23047C1.63253 6.23047 1.57735 6.233 1.52258 6.23849C1.46741 6.24398 1.41305 6.25243 1.35868 6.26383C1.30472 6.27481 1.25117 6.28875 1.19843 6.30522C1.14529 6.32211 1.09336 6.34111 1.04264 6.36307C0.991526 6.38503 0.941625 6.40953 0.892941 6.43656C0.844257 6.46358 0.796791 6.49314 0.750947 6.52482C0.704697 6.55691 0.660476 6.59112 0.617878 6.62744C0.574874 6.66376 0.534304 6.70219 0.494951 6.74315C0.456004 6.78369 0.41868 6.82592 0.38379 6.87027C0.3489 6.91503 0.315633 6.96106 0.285206 7.00878C0.254373 7.0565 0.225974 7.10549 0.200009 7.15617C0.173639 7.20685 0.150108 7.25879 0.129012 7.312C0.107916 7.36521 0.0892535 7.41927 0.0730256 7.47417C0.0572034 7.52907 0.0434097 7.58481 0.0328615 7.64098C0.0219078 7.69757 0.0137937 7.75416 0.00851966 7.81159C0.00283994 7.8686 0 7.92604 0 7.98347C0 8.0409 0.00283991 8.09834 0.00811396 8.15535C0.013388 8.21278 0.0215019 8.26937 0.0320501 8.32596C0.0430039 8.38213 0.0563921 8.43787 0.0722142 8.49277C0.0884421 8.5481 0.106699 8.60215 0.127795 8.65536C0.148891 8.70815 0.172422 8.76009 0.198386 8.81077C0.224351 8.86145 0.25275 8.91086 0.283583 8.95858C0.31401 9.00672 0.346872 9.05275 0.381762 9.0971C0.417057 9.14144 0.453976 9.18409 0.492923 9.22463C0.53187 9.2656 0.572845 9.30403 0.615444 9.34077C0.658042 9.37709 0.702263 9.41129 0.748513 9.44339C0.794357 9.47506 0.841417 9.50462 0.890101 9.53207C0.938785 9.5591 0.988686 9.5836 1.0398 9.60556C1.09092 9.62752 1.14285 9.64694 1.19559 9.66383C1.24833 9.6803 1.30188 9.69424 1.35584 9.70564C1.41021 9.71705 1.46457 9.72549 1.51974 9.73098C1.57451 9.73689 1.62969 9.73943 1.68486 9.73943C1.74004 9.73943 1.79521 9.73689 1.84998 9.73098C1.90516 9.72549 1.95952 9.71705 2.01388 9.70606C2.06784 9.69466 2.12139 9.68073 2.17454 9.66426C2.22728 9.64736 2.27921 9.62836 2.33033 9.6064C2.38104 9.58444 2.43094 9.55952 2.47963 9.5325C2.52831 9.50547 2.57578 9.47591 2.62162 9.44423C2.66746 9.41214 2.71209 9.37793 2.75469 9.34161C2.79729 9.30529 2.83826 9.26644 2.87721 9.2259C2.91616 9.18536 2.95348 9.14271 2.98837 9.09836C3.02326 9.05402 3.05612 9.00799 3.08696 8.95985C3.11779 8.91213 3.14619 8.86314 3.17215 8.81246C3.19812 8.76178 3.22165 8.70984 3.24274 8.65663C3.26384 8.60342 3.2825 8.54936 3.29873 8.49446C3.31455 8.43956 3.32794 8.38382 3.33889 8.32723C3.34944 8.27106 3.35756 8.21405 3.36324 8.15704C3.36851 8.0996 3.37135 8.04259 3.37135 7.98516C3.37094 7.92773 3.36851 7.87029 3.36283 7.81328C3.35756 7.75627 3.34944 7.69926 3.33849 7.64309C3.32753 7.58692 3.31415 7.53118 3.29832 7.47628C3.2821 7.42138 3.26384 7.36732 3.24234 7.31453C3.22124 7.26132 3.19771 7.20938 3.17175 7.15912C3.14578 7.10845 3.11738 7.05904 3.08696 7.01132C3.05612 6.9636 3.02367 6.91756 2.98837 6.87322C2.95348 6.82888 2.91656 6.78623 2.87762 6.74568C2.83867 6.70514 2.7981 6.66671 2.7555 6.62997C2.7129 6.59365 2.66868 6.55945 2.62284 6.52735C2.57699 6.49568 2.52953 6.46612 2.48125 6.43909C2.43256 6.41164 2.38266 6.38715 2.33195 6.36519C2.28083 6.34323 2.22931 6.3238 2.17657 6.30691C2.12383 6.29001 2.07028 6.27608 2.01632 6.26468C1.96196 6.2537 1.90759 6.24483 1.85282 6.23934C1.79805 6.23342 1.74288 6.23047 1.6877 6.23047Z" fill="#5A4978"/>
<path d="M1.6877 12.4375C1.63253 12.4371 1.57735 12.4401 1.52258 12.4456C1.46741 12.4511 1.41305 12.4595 1.35868 12.4705C1.30472 12.4819 1.25117 12.4958 1.19843 12.5123C1.14529 12.5288 1.09336 12.5482 1.04264 12.5701C0.991526 12.5921 0.941625 12.6166 0.892941 12.6436C0.844257 12.6707 0.796791 12.7002 0.750947 12.7319C0.704697 12.764 0.660476 12.7978 0.617878 12.8345C0.574874 12.8708 0.534304 12.9093 0.494951 12.9498C0.456004 12.9903 0.41868 13.033 0.38379 13.0773C0.3489 13.1217 0.315633 13.1677 0.285206 13.2154C0.254373 13.2636 0.225974 13.3126 0.200009 13.3632C0.173639 13.4139 0.150108 13.4659 0.129012 13.5191C0.107916 13.5719 0.0892535 13.6259 0.0730256 13.6808C0.0572034 13.7361 0.0434097 13.7919 0.0328615 13.848C0.0219078 13.9042 0.0137937 13.9612 0.00851966 14.0182C0.00283994 14.0757 0 14.1331 0 14.1905C0 14.248 0.00283991 14.3054 0.00811396 14.3624C0.013388 14.4199 0.0215019 14.4764 0.0320501 14.533C0.0430039 14.5892 0.0563921 14.6449 0.0722142 14.6998C0.0884421 14.7552 0.106699 14.8092 0.127795 14.862C0.148891 14.9152 0.172422 14.9672 0.198386 15.0178C0.224351 15.0685 0.25275 15.1179 0.283583 15.1657C0.31401 15.2134 0.346872 15.2598 0.381762 15.3042C0.417057 15.3485 0.453976 15.3912 0.492923 15.4317C0.53187 15.4727 0.572845 15.5111 0.615444 15.5474C0.658042 15.5842 0.702263 15.6184 0.748513 15.65C0.794357 15.6821 0.841417 15.7117 0.890101 15.7387C0.938785 15.7662 0.988686 15.7907 1.0398 15.8126C1.09092 15.8346 1.14285 15.854 1.19559 15.8709C1.24833 15.8874 1.30188 15.9013 1.35584 15.9127C1.41021 15.9237 1.46457 15.9321 1.51974 15.9381C1.57451 15.9435 1.62969 15.9465 1.68486 15.9465C1.74004 15.9465 1.79521 15.9435 1.84998 15.9381C1.90516 15.9326 1.95952 15.9241 2.01388 15.9131C2.06784 15.9017 2.12139 15.8878 2.17454 15.8713C2.22728 15.8544 2.27921 15.835 2.33033 15.813C2.38104 15.7911 2.43094 15.7666 2.47963 15.7396C2.52831 15.7125 2.57578 15.683 2.62162 15.6509C2.66746 15.6192 2.71209 15.585 2.75469 15.5487C2.79729 15.5119 2.83826 15.4735 2.87721 15.433C2.91616 15.3924 2.95348 15.3498 2.98837 15.3054C3.02326 15.2607 3.05612 15.2146 3.08696 15.1669C3.11779 15.1192 3.14619 15.0698 3.17215 15.0191C3.19812 14.9684 3.22165 14.9165 3.24274 14.8637C3.26384 14.8105 3.2825 14.7564 3.29873 14.7015C3.31455 14.6462 3.32794 14.5909 3.33889 14.5343C3.34944 14.4781 3.35756 14.4211 3.36324 14.3641C3.36851 14.3067 3.37135 14.2492 3.37135 14.1918C3.37135 14.1344 3.36851 14.0774 3.36324 14.0199C3.35756 13.9629 3.34944 13.9063 3.33889 13.8497C3.32794 13.7936 3.31455 13.7378 3.29873 13.6829C3.28291 13.628 3.26425 13.574 3.24315 13.5212C3.22205 13.468 3.19852 13.416 3.17256 13.3654C3.14659 13.3147 3.11819 13.2657 3.08777 13.218C3.05693 13.1702 3.02407 13.1238 2.98918 13.0794C2.95429 13.0351 2.91737 12.9929 2.87843 12.9519C2.83948 12.9114 2.7985 12.8729 2.75591 12.8366C2.71331 12.7999 2.66909 12.7657 2.62324 12.734C2.5774 12.7019 2.53034 12.6723 2.48165 12.6453C2.43297 12.6183 2.38307 12.5934 2.33236 12.5714C2.28124 12.5495 2.22931 12.53 2.17657 12.5136C2.12383 12.4967 2.07028 12.4827 2.01632 12.4713C1.96236 12.4603 1.90759 12.4519 1.85282 12.446C1.79805 12.4405 1.74288 12.4375 1.6877 12.4375Z" fill="#5A4978"/>
<path d="M1.6877 0.0302734C1.63253 0.0302734 1.57735 0.0332295 1.52258 0.0387196C1.46741 0.0442096 1.41305 0.0526558 1.35868 0.0636358C1.30472 0.0746158 1.25117 0.088552 1.19803 0.105444C1.14529 0.121914 1.09336 0.14134 1.04224 0.163301C0.99112 0.185261 0.941219 0.209754 0.892535 0.236782C0.843852 0.26381 0.796385 0.293371 0.750541 0.325045C0.704697 0.35714 0.660071 0.391347 0.617472 0.427665C0.574874 0.463984 0.533898 0.502414 0.494951 0.543378C0.455599 0.583919 0.41868 0.62615 0.383385 0.670915C0.348495 0.715257 0.315633 0.761289 0.2848 0.80901C0.253967 0.85673 0.225568 0.906141 0.199603 0.956818C0.173639 1.00749 0.150108 1.05944 0.128606 1.11223C0.10751 1.16544 0.0888479 1.21949 0.0730256 1.27482C0.0567977 1.32972 0.0434097 1.38546 0.0324558 1.44163C0.0219077 1.49822 0.0137937 1.55481 0.00811396 1.61224C0.00283991 1.66925 0 1.72669 0 1.78412C0 1.84155 0.00283991 1.89899 0.00811396 1.95642C0.013388 2.01343 0.021502 2.07044 0.0324558 2.12661C0.0430039 2.1832 0.056392 2.23895 0.0726199 2.29385C0.0884421 2.34875 0.107104 2.4028 0.128201 2.45601C0.149297 2.50922 0.172827 2.56117 0.198792 2.61184C0.225162 2.66252 0.253155 2.71193 0.283989 2.75965C0.314822 2.80737 0.347683 2.8534 0.382573 2.89817C0.417463 2.94251 0.454787 2.98516 0.493734 3.02571C0.532681 3.06625 0.573657 3.10468 0.616255 3.14142C0.659259 3.17774 0.70348 3.21194 0.749324 3.24404C0.795168 3.27571 0.842635 3.30527 0.891318 3.3323C0.940002 3.35975 0.989903 3.38424 1.04102 3.4062C1.09214 3.42816 1.14407 3.44759 1.19681 3.46406C1.24955 3.48095 1.3031 3.49489 1.35747 3.50587C1.41142 3.51727 1.46619 3.52572 1.52096 3.53121C1.57614 3.5367 1.63131 3.53965 1.68649 3.53965C1.74166 3.53965 1.79684 3.5367 1.85161 3.53079C1.90678 3.5253 1.96114 3.51685 2.01551 3.50545C2.06946 3.49447 2.12302 3.48053 2.17576 3.46364C2.2289 3.44675 2.28083 3.42774 2.33155 3.40536C2.38266 3.3834 2.43256 3.35891 2.48125 3.33188C2.52993 3.30443 2.5774 3.27487 2.62324 3.24319C2.66909 3.2111 2.71331 3.17689 2.75591 3.14015C2.7985 3.10383 2.83948 3.0654 2.87843 3.02444C2.91737 2.9839 2.9547 2.94124 2.98959 2.8969C3.02448 2.85214 3.05734 2.8061 3.08817 2.75838C3.1186 2.71066 3.147 2.66125 3.17296 2.61058C3.19893 2.5599 3.22246 2.50796 3.24355 2.45474C3.26465 2.40153 3.28331 2.34748 3.29914 2.29216C3.31536 2.23726 3.32835 2.18151 3.3393 2.12534C3.34985 2.06875 3.35796 2.01217 3.36324 1.95473C3.36851 1.89772 3.37135 1.84029 3.37135 1.78285C3.37094 1.72542 3.36851 1.66798 3.36283 1.61097C3.35756 1.55396 3.34944 1.49737 3.33849 1.44078C3.32753 1.38462 3.31415 1.32929 3.29832 1.27439C3.2821 1.21949 3.26343 1.16544 3.24234 1.11223C3.22124 1.05944 3.19771 1.00749 3.17175 0.95724C3.14578 0.906563 3.11738 0.857153 3.08696 0.809854C3.05612 0.762134 3.02326 0.716102 2.98837 0.67176C2.95348 0.627417 2.91656 0.584764 2.87762 0.544222C2.83867 0.503681 2.79769 0.465251 2.75509 0.428932C2.7125 0.392192 2.66828 0.358407 2.62243 0.326311C2.57659 0.294638 2.52953 0.265077 2.48084 0.238049C2.43216 0.211021 2.38266 0.186527 2.33155 0.164145C2.28083 0.142185 2.2289 0.123181 2.17616 0.106289C2.12342 0.0898189 2.07028 0.0754604 2.01591 0.0644804C1.96196 0.0530781 1.90759 0.0446319 1.85282 0.0391419C1.79805 0.0332295 1.74288 0.0302734 1.6877 0.0302734Z" fill="#5A4978"/>
<mask id="mask0_905_4338" style="mask-type:luminance" maskUnits="userSpaceOnUse" x="6" y="6" width="4" height="4">
<path d="M6.52661 6.16113L9.99939 6.16113V9.8369H6.52661L6.52661 6.16113Z" fill="white"/>
</mask>
<g mask="url(#mask0_905_4338)">
<path d="M8.27845 6.23047C8.22327 6.23047 8.1681 6.233 8.11292 6.23891C8.05815 6.2444 8.00379 6.25285 7.94943 6.26425C7.89547 6.27523 7.84192 6.28917 7.78918 6.30606C7.73603 6.32253 7.6841 6.34196 7.63339 6.36392C7.58227 6.38588 7.53237 6.41037 7.48369 6.4374C7.435 6.46485 7.38754 6.49399 7.34169 6.52608C7.29585 6.55818 7.25163 6.59239 7.20903 6.62871C7.16643 6.66502 7.12545 6.70345 7.08651 6.74442C7.04756 6.78496 7.01024 6.82761 6.97535 6.87195C6.94046 6.9163 6.90759 6.96233 6.87676 7.01005C6.84593 7.05777 6.81794 7.10718 6.79157 7.15786C6.7656 7.20853 6.74207 7.26048 6.72097 7.31369C6.69988 7.36648 6.68122 7.42053 6.66539 7.47543C6.64917 7.53076 6.63578 7.5865 6.62523 7.64267C6.61428 7.69883 6.60616 7.75585 6.60089 7.81286C6.59561 7.87029 6.59277 7.9273 6.59277 7.98516C6.59277 8.04259 6.59561 8.0996 6.60089 8.15704C6.60616 8.21405 6.61428 8.27106 6.62523 8.32723C6.63578 8.38382 6.64917 8.43914 6.66539 8.49446C6.68122 8.54936 6.69988 8.60342 6.72097 8.65663C6.74207 8.70942 6.7656 8.76136 6.79157 8.81204C6.81794 8.86272 6.84593 8.91213 6.87676 8.95985C6.90759 9.00757 6.94046 9.0536 6.97535 9.09794C7.01024 9.14228 7.04756 9.18494 7.08651 9.22548C7.12545 9.26644 7.16643 9.30487 7.20903 9.34119C7.25163 9.37793 7.29585 9.41214 7.34169 9.44381C7.38754 9.47591 7.435 9.50547 7.48369 9.5325C7.53237 9.55952 7.58227 9.58402 7.63339 9.60598C7.6841 9.62794 7.73603 9.64736 7.78918 9.66383C7.84192 9.68073 7.89547 9.69466 7.94943 9.70564C8.00379 9.71705 8.05815 9.72549 8.11292 9.73098C8.1681 9.73689 8.22327 9.73943 8.27845 9.73943C8.33362 9.73943 8.38839 9.73689 8.44357 9.73098C8.49834 9.72549 8.55311 9.71705 8.60706 9.70564C8.66143 9.69466 8.71457 9.68073 8.76772 9.66383C8.82046 9.64736 8.87239 9.62794 8.92351 9.60598C8.97422 9.58402 9.02412 9.55952 9.0728 9.5325C9.12149 9.50547 9.16895 9.47591 9.2148 9.44381C9.26064 9.41214 9.30486 9.37793 9.34746 9.34119C9.39047 9.30487 9.43104 9.26644 9.46998 9.22548C9.50934 9.18494 9.54625 9.14228 9.58114 9.09794C9.61644 9.0536 9.6493 9.00757 9.67973 8.95985C9.71056 8.91213 9.73896 8.86272 9.76493 8.81204C9.79089 8.76136 9.81442 8.70942 9.83552 8.65663C9.85661 8.60342 9.87527 8.54936 9.8911 8.49446C9.90732 8.43914 9.92071 8.38382 9.93167 8.32723C9.94221 8.27106 9.95033 8.21405 9.9556 8.15704C9.96128 8.0996 9.96372 8.04259 9.96372 7.98516C9.96372 7.92773 9.96088 7.87029 9.9556 7.81286C9.94992 7.75585 9.94181 7.69926 9.93126 7.64267C9.92031 7.5865 9.90692 7.53076 9.89069 7.47586C9.87487 7.42096 9.85621 7.3669 9.83511 7.31369C9.81401 7.2609 9.79008 7.20896 9.76411 7.15828C9.73815 7.1076 9.70975 7.05862 9.67932 7.01089C9.64849 6.96275 9.61563 6.91672 9.58074 6.87238C9.54544 6.82803 9.50852 6.78538 9.46958 6.74484C9.43063 6.7043 9.38965 6.66587 9.34706 6.62955C9.30446 6.59281 9.26024 6.5586 9.21439 6.52693C9.16855 6.49483 9.12108 6.46527 9.0724 6.43824C9.02372 6.41122 8.97381 6.38672 8.9231 6.36434C8.87198 6.34238 8.82005 6.32295 8.76731 6.30648C8.71457 6.28959 8.66102 6.27566 8.60706 6.26468C8.5527 6.25327 8.49834 6.24483 8.44357 6.23891C8.38839 6.23342 8.33362 6.23047 8.27845 6.23047Z" fill="#5A4978"/>
</g>
<mask id="mask1_905_4338" style="mask-type:luminance" maskUnits="userSpaceOnUse" x="6" y="12" width="4" height="4">
<path d="M6.52661 12.4316H9.99939V15.9993H6.52661L6.52661 12.4316Z" fill="white"/>
</mask>
<g mask="url(#mask1_905_4338)">
<path d="M8.27845 12.4375C8.22327 12.4375 8.1681 12.44 8.11292 12.4459C8.05815 12.4514 8.00379 12.4599 7.94943 12.4709C7.89547 12.4823 7.84192 12.4962 7.78918 12.5127C7.73603 12.5296 7.6841 12.549 7.63339 12.5709C7.58227 12.5929 7.53237 12.6174 7.48369 12.6444C7.435 12.6715 7.38754 12.701 7.34169 12.7331C7.29585 12.7648 7.25163 12.799 7.20903 12.8357C7.16643 12.8721 7.12545 12.9105 7.08651 12.951C7.04756 12.992 7.01024 13.0342 6.97535 13.079C6.94046 13.1233 6.90759 13.1694 6.87676 13.2171C6.84593 13.2648 6.81794 13.3142 6.79157 13.3649C6.7656 13.4156 6.74207 13.4675 6.72097 13.5203C6.69988 13.5735 6.68122 13.6276 6.66539 13.6825C6.64917 13.7374 6.63578 13.7931 6.62523 13.8497C6.61428 13.9059 6.60616 13.9629 6.60089 14.0199C6.59561 14.0769 6.59277 14.1343 6.59277 14.1918C6.59277 14.2492 6.59561 14.3066 6.60089 14.3641C6.60616 14.4211 6.61428 14.4777 6.62523 14.5343C6.63578 14.5904 6.64917 14.6462 6.66539 14.7011C6.68122 14.7564 6.69988 14.8104 6.72097 14.8632C6.74207 14.9164 6.7656 14.9684 6.79157 15.0191C6.81794 15.0697 6.84593 15.1187 6.87676 15.1669C6.90759 15.2146 6.94046 15.2606 6.97535 15.305C7.01024 15.3493 7.04756 15.392 7.08651 15.4325C7.12545 15.4731 7.16643 15.5119 7.20903 15.5482C7.25163 15.5845 7.29585 15.6187 7.34169 15.6508C7.38754 15.6825 7.435 15.7121 7.48369 15.7391C7.53237 15.7666 7.58227 15.791 7.63339 15.813C7.6841 15.835 7.73603 15.8544 7.78918 15.8709C7.84192 15.8878 7.89547 15.9017 7.94943 15.9127C8.00379 15.9241 8.05815 15.9325 8.11292 15.938C8.1681 15.9435 8.22327 15.9465 8.27845 15.9465C8.33362 15.9465 8.38839 15.9435 8.44357 15.938C8.49834 15.9325 8.55311 15.9241 8.60706 15.9127C8.66143 15.9017 8.71457 15.8878 8.76772 15.8709C8.82046 15.8544 8.87239 15.835 8.92351 15.813C8.97422 15.791 9.02412 15.7666 9.0728 15.7391C9.12149 15.7121 9.16895 15.6825 9.2148 15.6508C9.26064 15.6187 9.30486 15.5845 9.34746 15.5482C9.39047 15.5119 9.43104 15.4731 9.46998 15.4325C9.50934 15.392 9.54625 15.3493 9.58114 15.305C9.61644 15.2606 9.6493 15.2146 9.67973 15.1669C9.71056 15.1187 9.73896 15.0697 9.76493 15.0191C9.79089 14.9684 9.81442 14.9164 9.83552 14.8632C9.85661 14.8104 9.87527 14.7564 9.8911 14.7011C9.90732 14.6462 9.92071 14.5904 9.93167 14.5343C9.94221 14.4777 9.95033 14.4211 9.9556 14.3641C9.96128 14.3066 9.96372 14.2492 9.96372 14.1918C9.96372 14.1343 9.96128 14.0769 9.9556 14.0199C9.95033 13.9629 9.94221 13.9059 9.93167 13.8497C9.92071 13.7931 9.90732 13.7374 9.8911 13.6825C9.87527 13.6276 9.85661 13.5735 9.83552 13.5203C9.81442 13.4675 9.79089 13.4156 9.76493 13.3649C9.73896 13.3142 9.71056 13.2648 9.67973 13.2171C9.6493 13.1694 9.61644 13.1233 9.58114 13.079C9.54625 13.0342 9.50934 12.992 9.46998 12.951C9.43104 12.9105 9.39047 12.8721 9.34746 12.8357C9.30486 12.799 9.26064 12.7648 9.2148 12.7331C9.16895 12.701 9.12149 12.6715 9.0728 12.6444C9.02412 12.6174 8.97422 12.5929 8.92351 12.5709C8.87239 12.549 8.82046 12.5296 8.76772 12.5127C8.71457 12.4962 8.66143 12.4823 8.60706 12.4709C8.55311 12.4599 8.49834 12.4514 8.44357 12.4459C8.38839 12.44 8.33362 12.4375 8.27845 12.4375Z" fill="#5A4978"/>
</g>
<mask id="mask2_905_4338" style="mask-type:luminance" maskUnits="userSpaceOnUse" x="6" y="-1" width="4" height="5">
<path d="M6.52661 -0.000976562L9.99939 -0.000976562V3.56668L6.52661 3.56668L6.52661 -0.000976562Z" fill="white"/>
</mask>
<g mask="url(#mask2_905_4338)">
<path d="M8.27845 0.0302734C8.22327 0.0302734 8.1681 0.0332295 8.11292 0.0387196C8.05815 0.0446319 8.00338 0.0526559 7.94943 0.0640581C7.89506 0.0754604 7.84151 0.0893967 7.78877 0.105867C7.73603 0.122759 7.6841 0.142185 7.63298 0.164145C7.58186 0.186105 7.53237 0.210599 7.48369 0.237627C7.435 0.264654 7.38754 0.294216 7.34169 0.326311C7.29585 0.357984 7.25122 0.392192 7.20862 0.428932C7.16602 0.465251 7.12505 0.503681 7.0861 0.544645C7.04716 0.585186 7.01024 0.62784 6.97494 0.672182C6.94005 0.716524 6.90719 0.762556 6.87636 0.810699C6.84593 0.85842 6.81753 0.907408 6.79157 0.958084C6.7656 1.00918 6.74207 1.06071 6.72097 1.11392C6.69988 1.16713 6.68122 1.22118 6.66499 1.27608C6.64917 1.3314 6.63578 1.38673 6.62482 1.44332C6.61428 1.49948 6.60616 1.5565 6.60089 1.61351C6.59521 1.67094 6.59277 1.72837 6.59277 1.78581C6.59277 1.84324 6.59561 1.90068 6.60089 1.95769C6.60616 2.01512 6.61428 2.07171 6.62523 2.12788C6.63618 2.18447 6.64957 2.24021 6.66539 2.29511C6.68162 2.35001 6.70028 2.40407 6.72138 2.45728C6.74248 2.51049 6.76601 2.56243 6.79238 2.61311C6.81834 2.66379 6.84674 2.71277 6.87717 2.7605C6.908 2.80822 6.94086 2.85467 6.97616 2.89901C7.01105 2.94336 7.04797 2.98601 7.08732 3.02655C7.12627 3.06709 7.16724 3.10552 7.20984 3.14184C7.25244 3.17858 7.29706 3.21279 7.34291 3.24446C7.38875 3.27656 7.43622 3.3057 7.4849 3.33315C7.53359 3.36017 7.58349 3.38467 7.63461 3.40663C7.68532 3.42859 7.73725 3.44759 7.79039 3.46448C7.84313 3.48095 7.89669 3.49489 7.95064 3.50629C8.00501 3.51727 8.05937 3.52572 8.11455 3.53121C8.16932 3.5367 8.22449 3.53965 8.27967 3.53965C8.33484 3.53965 8.39002 3.5367 8.44519 3.53079C8.49996 3.5253 8.55432 3.51685 8.60869 3.50545C8.66264 3.49405 8.7162 3.48011 8.76894 3.46364C8.82208 3.44675 8.87401 3.42732 8.92472 3.40536C8.97584 3.3834 9.02574 3.35848 9.07443 3.33146C9.12311 3.30443 9.17017 3.27487 9.21602 3.24277C9.26227 3.21068 9.30649 3.17647 9.34908 3.14015C9.39168 3.10341 9.43266 3.06498 9.47161 3.02444C9.51055 2.98347 9.54747 2.94082 9.58236 2.89648C9.61725 2.85214 9.65011 2.80611 9.68095 2.75796C9.71137 2.71024 9.73977 2.66083 9.76574 2.61015C9.7917 2.55948 9.81523 2.50753 9.83633 2.45432C9.85742 2.40153 9.87609 2.34706 9.89191 2.29216C9.90773 2.23726 9.92112 2.18151 9.93207 2.12492C9.94262 2.06875 9.95073 2.01174 9.95601 1.95473C9.96128 1.8973 9.96412 1.84029 9.96372 1.78285C9.96372 1.72542 9.96088 1.66798 9.9556 1.61097C9.94992 1.55354 9.94181 1.49695 9.93126 1.44078C9.92031 1.38419 9.90692 1.32887 9.89069 1.27397C9.87487 1.21907 9.85621 1.16502 9.83511 1.1118C9.81361 1.05902 9.79008 1.00707 9.76411 0.956395C9.73815 0.905718 9.70975 0.85673 9.67892 0.80901C9.64849 0.761289 9.61563 0.715257 9.58033 0.670915C9.54544 0.626573 9.50852 0.583919 9.46958 0.543378C9.43022 0.502836 9.38965 0.464406 9.34706 0.428088C9.30405 0.391769 9.25983 0.357562 9.21399 0.325467C9.16814 0.293794 9.12108 0.264232 9.0724 0.237204C9.02372 0.210177 8.97381 0.185683 8.9227 0.163723C8.87198 0.141763 8.82005 0.122337 8.76731 0.105867C8.71457 0.0889743 8.66102 0.0750382 8.60706 0.0640581C8.5527 0.0526559 8.49834 0.0442096 8.44357 0.0387196C8.38839 0.0332295 8.33362 0.0302734 8.27845 0.0302734Z" fill="#5A4978"/>
</g>
</svg>
