<svg width="22" height="22" viewBox="0 0 22 22" fill="none" xmlns="http://www.w3.org/2000/svg">
<mask id="mask0_937_5509" style="mask-type:luminance" maskUnits="userSpaceOnUse" x="0" y="0" width="22" height="22">
<path d="M0 0H22V22H0V0Z" fill="white"/>
</mask>
<g mask="url(#mask0_937_5509)">
<path d="M20.46 2.64H18.48V0.44C18.48 0.197083 18.2835 0 18.04 0C17.7965 0 17.6 0.197083 17.6 0.44V2.64H4.4V0.44C4.4 0.197083 4.20292 0 3.96 0C3.71708 0 3.52 0.197083 3.52 0.44V2.64H1.54C0.690938 2.64 0 3.33094 0 4.18V20.46C0 21.3091 0.690938 22 1.54 22H20.46C21.3091 22 22 21.3091 22 20.46V4.18C22 3.33094 21.3091 2.64 20.46 2.64ZM1.54 3.52H3.52V4.84C3.52 5.08292 3.71708 5.28 3.96 5.28C4.20292 5.28 4.4 5.08292 4.4 4.84V3.52H17.6V4.84C17.6 5.08292 17.7965 5.28 18.04 5.28C18.2835 5.28 18.48 5.08292 18.48 4.84V3.52H20.46C20.8238 3.52 21.12 3.8162 21.12 4.18V7.04H0.88V4.18C0.88 3.8162 1.1762 3.52 1.54 3.52ZM20.46 21.12H1.54C1.1762 21.12 0.88 20.8238 0.88 20.46V7.92H21.12V20.46C21.12 20.8238 20.8238 21.12 20.46 21.12Z" fill="#777B83"/>
</g>
<path d="M3.07812 10.1201H4.83813V11.8801H3.07812V10.1201Z" fill="#777B83"/>
<path d="M6.60156 10.1201H8.36156V11.8801H6.60156V10.1201Z" fill="#777B83"/>
<path d="M10.1211 10.1201H11.8811V11.8801H10.1211V10.1201Z" fill="#777B83"/>
<path d="M13.6406 10.1201H15.4006V11.8801H13.6406V10.1201Z" fill="#777B83"/>
<path d="M17.1602 10.1201H18.9202V11.8801H17.1602V10.1201Z" fill="#777B83"/>
<path d="M3.07812 13.6401H4.83813V15.4001H3.07812V13.6401Z" fill="#777B83"/>
<path d="M6.60156 13.6401H8.36156V15.4001H6.60156V13.6401Z" fill="#777B83"/>
<path d="M10.1211 13.6401H11.8811V15.4001H10.1211V13.6401Z" fill="#777B83"/>
<path d="M13.6406 13.6401H15.4006V15.4001H13.6406V13.6401Z" fill="#777B83"/>
<path d="M17.1602 13.6401H18.9202V15.4001H17.1602V13.6401Z" fill="#777B83"/>
<path d="M3.07812 17.1602H4.83813V18.9202H3.07812V17.1602Z" fill="#777B83"/>
<path d="M6.60156 17.1602H8.36156V18.9202H6.60156V17.1602Z" fill="#777B83"/>
<path d="M10.1211 17.1602H11.8811V18.9202H10.1211V17.1602Z" fill="#777B83"/>
<path d="M13.6406 17.1602H15.4006V18.9202H13.6406V17.1602Z" fill="#777B83"/>
<path d="M17.1602 17.1602H18.9202V18.9202H17.1602V17.1602Z" fill="#777B83"/>
</svg>
