<svg width="15" height="20" viewBox="0 0 15 20" fill="none" xmlns="http://www.w3.org/2000/svg">
<path d="M13.805 2.53193H10.3356C10.1141 1.11058 8.93298 0.0131836 7.48098 0.0131836C6.02899 0.0131836 4.82319 1.11058 4.62634 2.53193H1.2058C0.541221 2.53193 0 3.08037 0 3.75381V5.00068C0 5.62412 0.443051 6.12256 1.03361 6.19756V18.3663C1.03361 19.2637 1.74702 19.9871 2.63312 19.9871H12.4023C13.2884 19.9871 14.0018 19.2637 14.0018 18.3663V6.22256C14.5924 6.12256 15.0355 5.62412 15.0355 5.02516V3.77881C15.0108 3.08037 14.4696 2.53193 13.805 2.53193ZM7.48098 0.9361C8.44058 0.9361 9.228 1.60902 9.40018 2.53193H5.53659C5.73345 1.63402 6.52138 0.9361 7.48098 0.9361ZM13.0669 18.3913C13.0669 18.7653 12.7714 19.0892 12.3777 19.0892H2.60845C2.23941 19.0892 1.91972 18.7903 1.91972 18.3913V6.24704H13.0422V18.3913H13.0669ZM14.1005 5.00068C14.1005 5.17516 13.9772 5.29964 13.805 5.29964H1.2058C1.03361 5.29964 0.910773 5.17516 0.910773 5.00068V3.75381C0.910773 3.57933 1.03361 3.45433 1.2058 3.45433H13.7803C13.9525 3.45433 14.0759 3.57933 14.0759 3.75381V5.00068H14.1005ZM3.96176 16.6955V8.81579C3.96176 8.56631 4.15861 8.36683 4.40481 8.36683C4.65101 8.36683 4.84786 8.56631 4.84786 8.81579V16.6955C4.84786 16.945 4.65101 17.1444 4.40481 17.1444C4.15861 17.1694 3.96176 16.945 3.96176 16.6955ZM7.08727 16.6955V8.81579C7.08727 8.56631 7.28413 8.36683 7.53032 8.36683C7.77601 8.36683 7.97286 8.56631 7.97286 8.81579V16.6955C7.97286 16.945 7.77601 17.1444 7.53032 17.1444C7.28413 17.1694 7.08727 16.945 7.08727 16.6955ZM10.2123 16.6955V8.81579C10.2123 8.56631 10.4091 8.36683 10.6553 8.36683C10.9015 8.36683 11.0984 8.56631 11.0984 8.81579V16.6955C11.0984 16.945 10.9015 17.1444 10.6553 17.1444C10.4338 17.1694 10.2123 16.945 10.2123 16.6955Z" fill="#5A4978"/>
</svg>
