<svg width="80" height="80" viewBox="0 0 80 80" fill="none" xmlns="http://www.w3.org/2000/svg">
<mask id="mask0_2057_6984" style="mask-type:luminance" maskUnits="userSpaceOnUse" x="0" y="0" width="80" height="80">
<path d="M0 0H80V80H0V0Z" fill="white"/>
</mask>
<g mask="url(#mask0_2057_6984)">
<path d="M76.3941 58.4158C73.94 55.6228 70.1252 52.7148 65.5287 50.3472L65.4701 50.3168C65.0228 50.0868 64.5776 49.8698 64.1323 49.6571V8.59158C64.1323 5.98958 61.8058 3.74783 58.0433 2.22873C54.6403 0.852864 49.9685 0 44.8347 0C39.703 0 35.0312 0.852865 31.624 2.22656C27.8656 3.74566 25.537 5.98741 25.537 8.58941V26.0634C23.5889 25.7834 21.4986 25.6293 19.3205 25.6293C14.1867 25.6293 9.51487 26.48 6.10977 27.8559C2.35141 29.3772 0.0249023 31.6189 0.0249023 34.2209V71.4128C0.0249023 74.0169 2.35141 76.2587 6.11186 77.7778C9.51696 79.1536 14.1888 80.0043 19.3226 80.0043C24.4563 80.0043 29.1282 79.1515 32.5333 77.7778C35.7523 76.4757 37.9179 74.6463 38.476 72.513C39.264 72.6302 40.073 72.7279 40.907 72.8017C42.18 72.9123 43.4927 72.9709 44.8347 72.9709C46.0387 72.9709 47.226 72.9232 48.3903 72.8299C49.3957 72.7517 50.3928 72.6324 51.3711 72.4826C52.2636 73.0208 53.1917 73.546 54.1574 74.043L54.216 74.0734C58.8083 76.4323 63.3506 77.8168 66.9793 78.151C70.9948 78.52 74.0341 77.5825 75.1461 75.2517L79.1198 66.9184C80.2339 64.5833 79.1094 61.5061 76.3941 58.4158ZM64.4062 52.6541C68.7247 54.8763 72.2866 57.5803 74.5504 60.1563C76.5592 62.4414 77.4977 64.4944 76.8895 65.7682L76.8874 65.7704C76.277 67.0464 74.1344 67.5152 71.1704 67.2396C67.8301 66.9336 63.5972 65.6293 59.2619 63.3984C54.9413 61.1762 51.3773 58.4701 49.1135 55.8919C47.1048 53.6068 46.1683 51.556 46.7787 50.2799C47.3869 49.0061 49.5274 48.5352 52.4935 48.8086C55.3092 49.069 58.7582 50.0369 62.364 51.6667C62.3849 51.6775 62.4037 51.6862 62.4246 51.6949C63.0767 51.9922 63.7352 52.3069 64.3978 52.6476L64.4062 52.6541ZM40.5642 57.4718C40.0855 58.4744 40.0228 59.6181 40.3196 60.8377C40.1754 60.8225 40.0312 60.8095 39.8869 60.7921C39.4605 60.74 39.0383 60.6836 38.6181 60.6185V53.9388C39.2285 54.0256 39.8619 54.1016 40.5203 54.1645C41.0324 54.2144 41.555 54.2535 42.0859 54.286L40.5642 57.4718ZM61.6344 45.7813C61.6344 46.1697 61.4944 46.5603 61.2331 46.951C60.9885 47.3177 60.6436 47.6736 60.2151 48.0208C57.504 47.0443 54.9329 46.441 52.7068 46.237C48.6913 45.8681 45.652 46.8056 44.542 49.1363L43.292 51.7535C42.4246 51.7231 41.5738 51.6667 40.744 51.5885C40.0312 51.5213 39.3226 51.428 38.6181 51.3216V44.6398C39.3623 44.7461 40.1231 44.8372 40.907 44.9067C42.18 45.0174 43.4927 45.076 44.8347 45.076C49.9685 45.076 54.6403 44.2231 58.0454 42.8472C59.4605 42.2765 60.6729 41.6016 61.6344 40.8464V45.7813ZM61.6344 36.4844C61.6344 37.9123 59.9204 39.3164 57.1466 40.4384C54.0216 41.7014 49.6696 42.4826 44.8347 42.4826C43.5512 42.4826 42.3075 42.4262 41.1119 42.3242C40.2548 42.2504 39.4229 42.1484 38.6181 42.0247V35.3451C39.3581 35.4514 40.1148 35.5425 40.8924 35.6098C42.1675 35.7205 43.4864 35.7812 44.8326 35.7812C49.9664 35.7812 54.6382 34.9284 58.0433 33.5547C59.4584 32.9818 60.6708 32.3069 61.6323 31.5517V36.4844H61.6344ZM61.6344 17.8885C61.6344 19.3142 59.9204 20.7205 57.1466 21.8403C54.0216 23.1033 49.6696 23.8867 44.8347 23.8867C39.9998 23.8867 35.6478 23.1033 32.5228 21.8403C29.7511 20.7205 28.037 19.3142 28.037 17.8885V12.9536C28.9986 13.7109 30.2089 14.3837 31.624 14.9566C35.0312 16.3325 39.703 17.1832 44.8347 17.1832C49.9685 17.1832 54.6403 16.3303 58.0454 14.9566C59.4605 14.3837 60.6729 13.7088 61.6344 12.9536V17.8885ZM27.989 26.5017C27.9221 25.1888 27.9325 23.6871 27.9618 22.1897C28.9359 22.9731 30.1733 23.6654 31.624 24.2535C35.0312 25.6315 39.703 26.48 44.8347 26.48C49.9685 26.48 54.6403 25.6293 58.0454 24.2535C59.4605 23.6827 60.6729 23.0078 61.6344 22.2526V27.1897C61.6344 28.6155 59.9204 30.0217 57.1466 31.1415C54.0216 32.4045 49.6696 33.1858 44.8347 33.1858C43.5471 33.1858 42.2971 33.1315 41.0993 33.0252C40.1482 32.9427 39.2243 32.8277 38.338 32.6823C37.6148 30.7378 35.5287 29.069 32.5333 27.8581C31.1976 27.3177 29.6654 26.8576 27.989 26.5017ZM36.1202 43.52C36.1202 44.9457 34.4062 46.3498 31.6323 47.4718C28.5073 48.7348 24.1553 49.5161 19.3205 49.5161C14.4856 49.5161 10.1336 48.7348 7.0086 47.4718C4.23686 46.3498 2.52072 44.9457 2.52072 43.52V38.5829C3.48435 39.3403 4.69464 40.013 6.10977 40.5838C9.51487 41.9618 14.1867 42.8103 19.3205 42.8103C24.4543 42.8103 29.1261 41.9596 32.5312 40.5838C33.9463 40.013 35.1566 39.3381 36.1202 38.5829V43.52ZM6.11186 49.8828C9.51696 51.2587 14.1888 52.1094 19.3226 52.1094C24.4563 52.1094 29.1282 51.2565 32.5333 49.8828C33.9484 49.3099 35.1587 48.635 36.1223 47.8798V52.8168C36.1223 54.2426 34.4083 55.6489 31.6344 56.7708C28.5094 58.0339 24.1574 58.8151 19.3226 58.8151C14.4877 58.8151 10.1357 58.0339 7.01069 56.7708C4.23895 55.6489 2.52281 54.2426 2.52281 52.8168V47.8798C3.48435 48.635 4.69673 49.3099 6.11186 49.8828ZM2.52281 62.1137V57.1767C3.48644 57.934 4.69673 58.6068 6.11186 59.1775C9.51696 60.5556 14.1888 61.4063 19.3226 61.4063C24.4563 61.4063 29.1282 60.5534 32.5333 59.1775C33.9484 58.6068 35.1587 57.9319 36.1223 57.1767V62.1137C36.1223 63.5395 34.4083 64.9457 31.6344 66.0655C28.5094 67.3286 24.1574 68.112 19.3226 68.112C14.4877 68.112 10.1357 67.3286 7.01069 66.0655C4.23686 64.9457 2.52281 63.5395 2.52281 62.1137ZM32.5207 4.63976C35.6457 3.37674 39.9977 2.59549 44.8326 2.59549C49.6675 2.59549 54.0195 3.37674 57.1445 4.63976C59.9162 5.75955 61.6323 7.1658 61.6323 8.59158C61.6323 10.0195 59.9183 11.4236 57.1445 12.5456C54.0195 13.8086 49.6675 14.5898 44.8326 14.5898C39.9977 14.5898 35.6457 13.8086 32.5207 12.5456C29.749 11.4236 28.0349 10.0195 28.0349 8.59158C28.037 7.1658 29.749 5.75955 32.5207 4.63976ZM7.0086 30.2691C10.1336 29.0061 14.4856 28.2227 19.3205 28.2227C21.8999 28.2227 24.3372 28.4484 26.5278 28.8455C26.5383 28.8477 26.5487 28.8498 26.5613 28.852C28.4655 29.2014 30.1838 29.6832 31.6344 30.2691C34.4062 31.3889 36.1223 32.7951 36.1223 34.2209C36.1223 35.6467 34.4083 37.053 31.6344 38.1727C28.5094 39.4358 24.1574 40.2192 19.3226 40.2192C14.4877 40.2192 10.1357 39.4358 7.01069 38.1727C4.23895 37.053 2.52281 35.6467 2.52281 34.2209C2.52281 32.7951 4.23686 31.3889 7.0086 30.2691ZM31.6344 75.3646C28.5094 76.6276 24.1574 77.4089 19.3226 77.4089C14.4877 77.4089 10.1357 76.6276 7.01069 75.3646C4.23895 74.2426 2.52281 72.8385 2.52281 71.4128V66.4757C3.48644 67.2331 4.69673 67.9058 6.11186 68.4766C9.51696 69.8524 14.1888 70.7031 19.3226 70.7031C24.4563 70.7031 29.1282 69.8524 32.5333 68.4766C33.9484 67.9058 35.1587 67.2309 36.1223 66.4757V71.4128C36.1202 72.8364 34.4062 74.2426 31.6344 75.3646ZM44.8347 70.3733C43.5512 70.3733 42.3075 70.3168 41.1119 70.2148C40.2548 70.1411 39.4229 70.0391 38.6181 69.9154V63.2357C38.9421 63.2813 39.2682 63.3268 39.6048 63.3659C40.213 63.4397 40.8422 63.4983 41.4923 63.546C41.9752 64.3446 42.5793 65.1584 43.292 65.9722C44.5462 67.4002 46.1578 68.8563 48.0433 70.2561C47.0149 70.332 45.9425 70.3733 44.8347 70.3733ZM72.9116 74.1037C72.3033 75.3798 70.1629 75.8485 67.1967 75.5751C63.8543 75.2669 59.6215 73.9627 55.2925 71.7383L55.282 71.7339C50.9635 69.5117 47.4016 66.8077 45.1378 64.2318C44.3978 63.3919 43.8063 62.5825 43.3819 61.8316C43.3401 61.7166 43.2837 61.6124 43.2126 61.5169C42.619 60.3581 42.4476 59.3555 42.8008 58.6155L44.9099 54.1927C45.4471 55.3125 46.2456 56.4757 47.2657 57.6389C49.726 60.4362 53.5512 63.3529 58.1604 65.7227C62.7632 68.0881 67.3159 69.4792 70.9551 69.8155C72.4664 69.9566 73.8418 69.9089 75.0249 69.6745L72.9116 74.1037Z" fill="#00008A"/>
</g>
</svg>
