<svg width="150" height="150" viewBox="0 0 150 150" fill="none" xmlns="http://www.w3.org/2000/svg">
<mask id="mask0_2055_5716" style="mask-type:luminance" maskUnits="userSpaceOnUse" x="25" y="30" width="100" height="100">
<path d="M25 30H125V130H25V30Z" fill="white"/>
</mask>
<g mask="url(#mask0_2055_5716)">
<path d="M123.381 129.992C122.511 129.992 121.795 129.276 121.795 128.406V119.37C121.795 106.081 110.985 95.2708 97.6956 95.2708H52.3128C39.0264 95.2708 28.2139 106.081 28.2139 119.37V128.406C28.2139 129.284 27.5055 129.992 26.6279 129.992C25.7529 129.992 25.042 129.284 25.042 128.406V119.37C25.042 104.331 37.2764 92.099 52.3128 92.099H97.6956C112.732 92.099 124.966 104.331 124.966 119.37V128.406C124.966 129.276 124.25 129.992 123.381 129.992ZM103.922 58.9167C103.922 42.9714 90.9482 30 75.0055 30C59.0602 30 46.0863 42.9714 46.0863 58.9167C46.0863 74.862 59.0602 87.8333 75.0055 87.8333C90.9482 87.8333 103.922 74.862 103.922 58.9167ZM100.75 58.9167C100.75 73.112 89.2008 84.6615 75.0055 84.6615C60.8076 84.6615 49.2581 73.112 49.2581 58.9167C49.2581 44.7214 60.8076 33.1719 75.0055 33.1719C89.2008 33.1719 100.75 44.7214 100.75 58.9167Z" fill="#00008A"/>
</g>
<circle cx="75" cy="75" r="74" stroke="#00008A" stroke-width="2"/>
</svg>
