<svg width="94" height="94" viewBox="0 0 94 94" fill="none" xmlns="http://www.w3.org/2000/svg">
<mask id="mask0_2068_6810" style="mask-type:luminance" maskUnits="userSpaceOnUse" x="0" y="0" width="94" height="94">
<path d="M0 0H94V94H0V0Z" fill="white"/>
</mask>
<g mask="url(#mask0_2068_6810)">
<path fill-rule="evenodd" clip-rule="evenodd" d="M93.0918 93.9902H0.927765C0.421046 93.9902 0.00979614 93.579 0.00979614 93.0723V0.908203C0.00979614 0.401484 0.421046 -0.00976562 0.927765 -0.00976562C1.43448 -0.00976562 1.84329 0.401484 1.84329 0.908203V92.1567H93.0918C93.5985 92.1567 94.0098 92.5655 94.0098 93.0723C94.0098 93.579 93.5985 93.9902 93.0918 93.9902Z" fill="#00008A"/>
</g>
<path fill-rule="evenodd" clip-rule="evenodd" d="M66.4438 90.3183V34.168C66.4438 33.6612 66.855 33.25 67.3617 33.25H79.2219C79.731 33.25 80.1399 33.6612 80.1399 34.168V90.3183H66.4438ZM13.8796 90.3183V59.3766C13.8796 58.8699 14.2884 58.4586 14.7952 58.4586H26.6578C27.1645 58.4586 27.5733 58.8699 27.5733 59.3766V90.3183H13.8796ZM31.3994 90.3183V41.2816C31.3994 40.7749 31.8106 40.3636 32.3173 40.3636H44.1775C44.6842 40.3636 45.0979 40.7749 45.0979 41.2816V90.3183H31.3994ZM48.9216 90.3183V45.4137C48.9216 44.9045 49.3328 44.4933 49.8395 44.4933H61.6997C62.2064 44.4933 62.6177 44.9045 62.6177 45.4137V90.3183H48.9216Z" fill="#00008A"/>
</svg>
