<svg width="118" height="102" viewBox="0 0 118 102" fill="none" xmlns="http://www.w3.org/2000/svg">
<g filter="url(#filter0_d_2068_6783)">
<mask id="mask0_2068_6783" style="mask-type:luminance" maskUnits="userSpaceOnUse" x="4" y="0" width="110" height="94">
<path d="M4.22196 0H114V94H4.22196V0Z" fill="white"/>
</mask>
<g mask="url(#mask0_2068_6783)">
<path fill-rule="evenodd" clip-rule="evenodd" d="M112.665 93.6211H5.55448C4.84649 93.6211 4.2709 93.0096 4.2709 92.2581V1.79649C4.2709 0.00143161 6.84094 0.00143161 6.84094 1.79649V90.892H112.665C114.357 90.892 114.354 93.6211 112.665 93.6211Z" fill="#00008A"/>
</g>
<path fill-rule="evenodd" clip-rule="evenodd" d="M104.29 94C103.583 94 103.01 93.3827 103.01 92.6211L103.071 39.7707C103.071 39.0213 102.495 38.404 101.797 38.404H92.8691C92.168 38.404 91.5986 39.0183 91.5957 39.7737L91.5356 92.6241C91.5328 94.4391 88.9774 94.4361 88.9803 92.6211L89.0403 39.7707C89.0432 37.5011 90.7601 35.6523 92.8691 35.6523H101.797C103.906 35.6523 105.629 37.5042 105.626 39.7737L105.566 92.6241C105.566 93.3827 104.993 94 104.29 94Z" fill="#00008A"/>
<path fill-rule="evenodd" clip-rule="evenodd" d="M11.4749 84.7384H5.28817C3.57061 84.7384 3.57061 81.96 5.28817 81.96H11.4749C13.1895 81.96 13.1895 84.7384 11.4749 84.7384Z" fill="#00008A"/>
<path fill-rule="evenodd" clip-rule="evenodd" d="M11.4749 67.1417H5.28817C3.57061 67.1417 3.57061 64.3633 5.28817 64.3633H11.4749C13.1895 64.3633 13.1895 67.1417 11.4749 67.1417Z" fill="#00008A"/>
<path fill-rule="evenodd" clip-rule="evenodd" d="M11.4749 48.6183H5.28817C3.57061 48.6183 3.57061 45.8398 5.28817 45.8398H11.4749C13.1895 45.8398 13.1895 48.6183 11.4749 48.6183Z" fill="#00008A"/>
<path fill-rule="evenodd" clip-rule="evenodd" d="M11.4749 30.0958H5.28817C3.57061 30.0958 3.57061 27.3174 5.28817 27.3174H11.4749C13.1895 27.3174 13.1895 30.0958 11.4749 30.0958Z" fill="#00008A"/>
<path fill-rule="evenodd" clip-rule="evenodd" d="M11.4749 11.5724H5.28817C3.57061 11.5724 3.57061 8.79395 5.28817 8.79395H11.4749C13.1895 8.79395 13.1895 11.5724 11.4749 11.5724Z" fill="#00008A"/>
<path fill-rule="evenodd" clip-rule="evenodd" d="M80.6878 93.9997C79.9814 93.9997 79.407 93.3776 79.407 92.6132V52.7744C79.407 52.0255 78.8211 51.3911 78.129 51.3911H69.1686C68.465 51.3911 67.8906 52.01 67.8906 52.7744V92.6132C67.8906 94.4391 65.326 94.436 65.326 92.6132V52.7744C65.326 50.4843 67.052 48.6182 69.1686 48.6182H78.129C80.2484 48.6182 81.9716 50.4843 81.9716 52.7744V92.6132C81.9716 93.3776 81.3972 93.9997 80.6878 93.9997Z" fill="#00008A"/>
<path fill-rule="evenodd" clip-rule="evenodd" d="M57.0364 93.9996C56.3271 93.9996 55.7527 93.3806 55.7527 92.62V48.1198C55.7527 47.3623 55.1812 46.7434 54.4747 46.7434H45.5143C44.8107 46.7434 44.2363 47.3623 44.2363 48.1198V92.62C44.2363 94.4368 41.6717 94.4368 41.6717 92.62V48.1198C41.6717 45.8411 43.3948 43.9873 45.5143 43.9873H54.4747C56.5941 43.9873 58.3173 45.8411 58.3173 48.1198V92.62C58.3173 93.3806 57.7429 93.9996 57.0364 93.9996Z" fill="#00008A"/>
<path fill-rule="evenodd" clip-rule="evenodd" d="M33.3819 94.0002C32.6753 94.0002 32.1008 93.3746 32.1008 92.6058V61.1343C32.1008 60.3811 31.5148 59.743 30.8226 59.743H21.8606C21.154 59.743 20.5824 60.3655 20.5824 61.1343V92.6058C20.5824 94.4391 18.0174 94.4391 18.0174 92.6058V61.1343C18.0174 58.8279 19.7408 56.9541 21.8578 56.9541H30.8197C32.9395 56.9541 34.663 58.831 34.663 61.1343V92.6058C34.6658 93.3746 34.0914 94.0002 33.3819 94.0002Z" fill="#00008A"/>
<path fill-rule="evenodd" clip-rule="evenodd" d="M29.8211 36.5788C28.6369 36.5788 28.0737 35.0634 28.9748 34.2615L45.7695 19.3053C47.0518 18.1644 48.7443 20.1574 47.462 21.2983L30.6673 36.2545C30.4247 36.4726 30.1214 36.5788 29.8211 36.5788ZM67.3123 34.7863C66.1195 34.7863 65.562 33.2562 66.4747 32.4601C73.6633 26.1894 88.6413 12.5334 90.3222 10.9973C91.593 9.84166 93.3057 11.814 92.0407 12.9697C90.354 14.5086 75.3587 28.1823 68.1498 34.4708C67.9072 34.6801 67.6069 34.7863 67.3123 34.7863ZM60.2854 34.1406C59.8782 34.1406 59.4767 33.9431 59.2254 33.5746C56.8745 30.1045 54.6333 26.2395 52.5596 22.5778C51.7076 21.0742 53.9401 19.7505 54.7892 21.2511C56.8369 24.8656 59.0492 28.6747 61.3453 32.068C61.9432 32.9495 61.3165 34.1406 60.2854 34.1406Z" fill="#00008A"/>
<path fill-rule="evenodd" clip-rule="evenodd" d="M93.7997 14.3511C87.3738 14.3511 87.3738 3.2373 93.7997 3.2373C100.223 3.2373 100.223 14.3511 93.7997 14.3511ZM93.7997 6.00188C90.5704 6.00188 90.5704 11.5897 93.7997 11.5897C97.0263 11.5897 97.029 6.00188 93.7997 6.00188Z" fill="#00008A"/>
<path fill-rule="evenodd" clip-rule="evenodd" d="M63.5744 40.2834C56.5649 40.2834 56.5649 30.0957 63.5744 30.0957C70.5808 30.0957 70.5838 40.2834 63.5744 40.2834ZM63.5744 32.6299C60.0519 32.6299 60.0519 37.7492 63.5744 37.7492C67.0969 37.7492 67.0969 32.6299 63.5744 32.6299Z" fill="#00008A"/>
<path fill-rule="evenodd" clip-rule="evenodd" d="M50.4314 25.4644C43.4242 25.4644 43.4242 14.3506 50.4314 14.3506C57.4416 14.3506 57.4416 25.4644 50.4314 25.4644ZM50.4314 17.1152C46.9115 17.1152 46.9085 22.6998 50.4314 22.6998C53.9543 22.6998 53.9543 17.1152 50.4314 17.1152Z" fill="#00008A"/>
<path fill-rule="evenodd" clip-rule="evenodd" d="M27.2173 43.9879C20.7913 43.9879 20.7913 32.874 27.2173 32.874C33.6405 32.874 33.6405 43.9879 27.2173 43.9879ZM27.2173 35.6378C23.988 35.6378 23.988 41.2241 27.2173 41.2241C30.4439 41.2241 30.4466 35.6378 27.2173 35.6378Z" fill="#00008A"/>
</g>
<defs>
<filter id="filter0_d_2068_6783" x="0" y="0.450195" width="117.933" height="101.55" filterUnits="userSpaceOnUse" color-interpolation-filters="sRGB">
<feFlood flood-opacity="0" result="BackgroundImageFix"/>
<feColorMatrix in="SourceAlpha" type="matrix" values="0 0 0 0 0 0 0 0 0 0 0 0 0 0 0 0 0 0 127 0" result="hardAlpha"/>
<feOffset dy="4"/>
<feGaussianBlur stdDeviation="2"/>
<feComposite in2="hardAlpha" operator="out"/>
<feColorMatrix type="matrix" values="0 0 0 0 0 0 0 0 0 0 0 0 0 0 0 0 0 0 0.25 0"/>
<feBlend mode="normal" in2="BackgroundImageFix" result="effect1_dropShadow_2068_6783"/>
<feBlend mode="normal" in="SourceGraphic" in2="effect1_dropShadow_2068_6783" result="shape"/>
</filter>
</defs>
</svg>
