<svg width="94" height="94" viewBox="0 0 94 94" fill="none" xmlns="http://www.w3.org/2000/svg">
<mask id="mask0_2068_6718" style="mask-type:luminance" maskUnits="userSpaceOnUse" x="0" y="0" width="94" height="94">
<path d="M0 0H94V94H0V0Z" fill="white"/>
</mask>
<g mask="url(#mask0_2068_6718)">
<path fill-rule="evenodd" clip-rule="evenodd" d="M92.8446 93.9956H1.28515C0.675619 93.9956 0.186035 93.5036 0.186035 92.894V1.10449C0.186035 0.49496 0.675619 0.00292969 1.28515 0.00292969C1.88979 0.00292969 2.38182 0.49496 2.38182 1.10449V91.7925H92.8446C93.4517 91.7925 93.9437 92.2869 93.9437 92.894C93.9437 93.5036 93.4517 93.9956 92.8446 93.9956Z" fill="#00008A"/>
</g>
<mask id="mask1_2068_6718" style="mask-type:luminance" maskUnits="userSpaceOnUse" x="0" y="19" width="86" height="65">
<path d="M0 19.623H85.54V83.543H0V19.623Z" fill="white"/>
</mask>
<g mask="url(#mask1_2068_6718)">
<path fill-rule="evenodd" clip-rule="evenodd" d="M1.28515 83.0971C1.00119 83.0971 0.722131 82.9894 0.506714 82.7739C0.0783284 82.3431 0.0783284 81.6455 0.506714 81.2171L33.7494 47.8911C34.1778 47.4579 34.8755 47.4579 35.3038 47.8911L45.3868 57.9961L83.1729 20.1171C83.6012 19.6862 84.2965 19.6862 84.7248 20.1171C85.1557 20.5479 85.1557 21.2456 84.7248 21.6739L46.1628 60.3339C45.7344 60.7647 45.0392 60.7647 44.6108 60.3339L34.5279 50.2264L2.06114 82.7739C1.84572 82.9894 1.56421 83.0971 1.28515 83.0971Z" fill="#00008A"/>
</g>
</svg>
