<svg width="92" height="94" viewBox="0 0 92 94" fill="none" xmlns="http://www.w3.org/2000/svg">
<mask id="mask0_2068_6898" style="mask-type:luminance" maskUnits="userSpaceOnUse" x="13" y="0" width="33" height="43">
<path d="M13.2013 0H45.1194V42.2999H13.2013V0Z" fill="white"/>
</mask>
<g mask="url(#mask0_2068_6898)">
<path d="M43.5795 41.944C43.8827 41.8265 44.1272 41.6331 44.313 41.3639C44.4988 41.0946 44.5917 40.7984 44.5941 40.4704V1.63427C44.5917 1.4213 44.5477 1.21568 44.4645 1.01985C44.3814 0.824014 44.2616 0.650213 44.1101 0.50089C43.9585 0.351568 43.7825 0.238963 43.5869 0.158183C43.3889 0.0798494 43.1835 0.040683 42.9708 0.0431307C40.3281 0.0357875 37.7098 0.27813 35.116 0.77016C32.5197 1.26219 29.9943 1.99656 27.5398 2.97328C25.0853 3.95 22.7433 5.14947 20.5161 6.57416C18.2915 7.99884 16.2183 9.62181 14.3017 11.4431C14.1477 11.5875 14.0279 11.7588 13.9423 11.9522C13.8567 12.1456 13.8103 12.3488 13.8079 12.5617C13.8054 12.7723 13.8421 12.9779 13.9228 13.1737C14.001 13.3696 14.1159 13.5434 14.265 13.6927L41.8071 41.5768C42.0394 41.8094 42.3156 41.9587 42.6383 42.0273C42.961 42.0934 43.274 42.0664 43.5795 41.944ZM41.35 36.5439L17.7438 12.6401C19.3745 11.2178 21.1127 9.94248 22.9609 8.814C24.8066 7.68551 26.7355 6.72348 28.745 5.92301C30.757 5.12499 32.8179 4.50078 34.935 4.05281C37.0497 3.60729 39.1888 3.34047 41.35 3.25724V36.5439Z" fill="#00008A"/>
</g>
<mask id="mask1_2068_6898" style="mask-type:luminance" maskUnits="userSpaceOnUse" x="0" y="19" width="44" height="55">
<path d="M0 19.1133H43.2421V73.0065H0V19.1133Z" fill="white"/>
</mask>
<g mask="url(#mask1_2068_6898)">
<path d="M42.8419 48.775C42.8883 48.2879 42.7392 47.8718 42.392 47.5242L14.8499 19.6351C14.5346 19.3169 14.1556 19.1578 13.7107 19.1504C13.2658 19.148 12.8819 19.2973 12.5543 19.5984C4.45991 27.2897 0.0056422 37.5979 0.0056422 48.6306C0.00319764 50.7187 0.166993 52.7945 0.49214 54.8557C0.817287 56.9192 1.30134 58.9412 1.94674 60.9265C2.59215 62.9117 3.38912 64.8333 4.33767 66.6937C5.28866 68.5517 6.37656 70.324 7.60625 72.0082C7.75782 72.2211 7.9534 72.3851 8.18564 72.5051C8.42034 72.6226 8.66725 72.6813 8.92884 72.6789C9.2711 72.6789 9.58157 72.581 9.86272 72.3851L42.1647 49.928C42.5705 49.6489 42.7954 49.2646 42.8419 48.775ZM9.34199 68.8455C7.352 65.8517 5.83872 62.6351 4.80216 59.1909C3.76561 55.7467 3.24977 52.2266 3.25466 48.6306C3.25466 38.9981 6.94129 29.9604 13.6716 23.0132L38.7494 48.4054L9.34199 68.8455Z" fill="#00008A"/>
</g>
<mask id="mask2_2068_6898" style="mask-type:luminance" maskUnits="userSpaceOnUse" x="15" y="10" width="77" height="84">
<path d="M15.0796 10.9668H92V93.9999H15.0796V10.9668Z" fill="white"/>
</mask>
<g mask="url(#mask2_2068_6898)">
<path d="M91.61 47.3728C91.522 46.7118 91.4169 46.0582 91.2946 45.4095C91.0355 44.0167 90.7055 42.6409 90.3021 41.2824C90.1309 40.7022 89.9427 40.122 89.7471 39.5419C89.3169 38.3081 88.8206 37.0744 88.2705 35.8872C88.0334 35.3633 87.784 34.8517 87.5249 34.3425C86.9577 33.2385 86.3294 32.137 85.6522 31.0574C85.3564 30.5923 85.0582 30.1321 84.7452 29.6817C83.9752 28.5679 83.1366 27.481 82.2565 26.448C81.9094 26.0368 81.5525 25.6304 81.1809 25.229C80.3741 24.3526 79.5062 23.4909 78.5968 22.6586C78.1983 22.2964 77.7925 21.939 77.3769 21.5889C76.4455 20.8007 75.4651 20.0443 74.4726 19.3417C74.0203 19.021 73.5631 18.7077 73.106 18.4115C72.023 17.7041 70.9253 17.0603 69.8496 16.4924C69.3485 16.2255 68.8375 15.9685 68.3217 15.7213C66.9942 15.0848 65.6398 14.5218 64.2537 14.0298C63.6767 13.8364 63.0973 13.6307 62.5204 13.4496C61.1709 13.0359 59.7799 12.6785 58.3741 12.4019C57.7263 12.2746 57.076 12.1571 56.4159 12.0567C54.8391 11.8217 53.2549 11.6724 51.661 11.6137C51.1011 11.5916 50.5389 11.5745 49.9741 11.5745C49.6588 11.5696 49.3532 11.6284 49.0622 11.7459C48.7689 11.8634 48.5097 12.0347 48.2824 12.255C48.0575 12.4753 47.8815 12.7324 47.7568 13.0237C47.6345 13.315 47.5685 13.6185 47.5661 13.9343V51.5807L16.2958 73.3206C15.7482 73.6951 15.4181 74.2092 15.3057 74.8652C15.1981 75.509 15.3375 76.0941 15.7213 76.6204L15.8777 76.826C16.5574 77.7513 17.3103 78.684 18.188 79.6778C18.5449 80.0842 18.9092 80.4832 19.2783 80.8724C20.0875 81.7218 20.9725 82.5737 21.9088 83.4011C22.3147 83.7585 22.7278 84.1086 23.1483 84.4513C24.3047 85.3937 25.3828 86.1917 26.4438 86.8992C26.8276 87.1562 27.2261 87.3961 27.6221 87.636L27.8568 87.778C28.9472 88.4438 30.0668 89.0582 31.1963 89.6213C31.7146 89.8709 32.2329 90.1206 32.7536 90.3507C33.9099 90.8599 35.1274 91.3275 36.5013 91.7877C37.0807 91.981 37.6577 92.1744 38.2517 92.336C39.6379 92.7374 41.0387 93.0679 42.4566 93.3274C43.1216 93.4449 43.7915 93.5379 44.4564 93.6285C46.2411 93.8635 48.0306 93.9859 49.8299 93.9957H49.9863C50.7467 93.9957 51.4972 93.9712 52.2428 93.932C54.245 93.8268 56.2326 93.582 58.2006 93.1977C59.1907 93.0043 60.1857 92.7668 61.2491 92.4755C64.2903 91.653 67.202 90.5001 69.9841 89.0166C72.7662 87.5332 75.3502 85.7585 77.7314 83.69C81.4522 80.471 84.5154 76.711 86.9161 72.4124C88.4221 69.6904 89.598 66.8337 90.4463 63.8399C90.7446 62.7848 90.9841 61.8056 91.1797 60.8485C91.5684 58.9171 91.8178 56.9686 91.9303 55.0004C91.9669 54.2685 91.9889 53.5341 91.9889 52.7924V52.6798C91.9767 50.9026 91.8496 49.1328 91.61 47.3728ZM88.6861 54.8364C88.5859 56.6479 88.3536 58.4447 87.9943 60.2267C87.8134 61.1055 87.5933 62.0113 87.3171 62.988C86.5348 65.7517 85.4518 68.3881 84.0632 70.8996C82.6575 73.4283 80.9877 75.7661 79.0515 77.9129C75.9981 81.3057 72.4606 84.0792 68.439 86.2309C65.8721 87.5968 63.1853 88.6617 60.3788 89.423C59.396 89.6922 58.4768 89.9101 57.5674 90.0864C55.751 90.4413 53.9199 90.669 52.0717 90.7644C51.3823 90.8036 50.6904 90.8281 49.9937 90.8232H49.8812C48.209 90.8158 46.5442 90.7032 44.8867 90.4829C44.2682 90.4021 43.6521 90.3165 43.0409 90.2063C41.733 89.9664 40.4398 89.6629 39.1612 89.2908C38.6184 89.1366 38.0782 88.9628 37.5477 88.7865C36.274 88.3606 35.1445 87.9249 34.0884 87.4573C33.5995 87.2443 33.1252 87.0118 32.6509 86.7841C31.6143 86.2701 30.5753 85.6973 29.5681 85.0853L29.3285 84.9384C28.9667 84.7205 28.6098 84.5051 28.2602 84.2726C27.297 83.6263 26.2947 82.8895 25.2239 82.0156C24.8376 81.6998 24.4513 81.3742 24.0773 81.0487C23.2094 80.2874 22.3929 79.504 21.6473 78.7134C21.3026 78.3535 20.9676 77.9814 20.6425 77.6118C19.9824 76.8652 19.4006 76.1528 18.8652 75.4527L50.1306 53.6933C50.3433 53.5464 50.512 53.3579 50.6318 53.1278C50.754 52.9001 50.8151 52.6553 50.8151 52.3959V14.7862L51.5363 14.8131C53.008 14.8669 54.4699 15.004 55.9245 15.2194C56.5333 15.3149 57.1371 15.4202 57.7361 15.5377C59.0269 15.7996 60.3128 16.1178 61.5572 16.5046C62.095 16.6686 62.6231 16.8498 63.1487 17.0358C64.4248 17.4862 65.6741 18.0003 66.8964 18.5829C67.3731 18.8105 67.845 19.048 68.3119 19.2952C69.3045 19.8166 70.3117 20.409 71.3164 21.0675C71.7418 21.3417 72.1574 21.6256 72.5755 21.9218C73.4947 22.5705 74.3992 23.2755 75.2622 24.0001C75.6485 24.3208 76.0225 24.6512 76.3868 24.9915C77.2278 25.7528 78.0321 26.5508 78.7753 27.3635C79.1151 27.7332 79.4427 28.1077 79.7678 28.4847C80.5795 29.4418 81.352 30.4454 82.0658 31.4736C82.3543 31.8922 82.6306 32.3181 82.9019 32.7391C83.5229 33.7281 84.1047 34.744 84.6255 35.7648C84.865 36.2299 85.0948 36.6999 85.3149 37.1845C85.8234 38.2861 86.2781 39.4219 86.6766 40.5602C86.8599 41.0865 87.0286 41.6153 87.1875 42.1563C87.564 43.4145 87.8696 44.6874 88.1043 45.9774C88.2167 46.5747 88.3145 47.1794 88.3976 47.7865C88.6177 49.4119 88.7301 51.0446 88.7399 52.6847V52.7924C88.7423 53.4803 88.7203 54.1633 88.6861 54.8364Z" fill="#00008A"/>
</g>
</svg>
