<svg width="94" height="94" viewBox="0 0 94 94" fill="none" xmlns="http://www.w3.org/2000/svg">
<mask id="mask0_2270_5896" style="mask-type:luminance" maskUnits="userSpaceOnUse" x="0" y="0" width="94" height="94">
<path d="M0 0H94V94H0V0Z" fill="white"/>
</mask>
<g mask="url(#mask0_2270_5896)">
<path d="M93.8066 35.8859C93.6597 35.3938 93.3097 35.0304 92.8862 34.8578L47.9033 0.41175C47.3647 -0.000531115 46.6353 -0.000531115 46.0967 0.41175L46.0331 0.458131C45.9817 0.494206 45.9327 0.53028 45.8862 0.571508L1.1138 34.8578C0.690305 35.0279 0.342702 35.3938 0.195827 35.8834C0.0293685 36.4374 0.161555 37.0171 0.496921 37.4268L17.5907 92.8812C17.7963 93.5485 18.3863 93.9995 19.0546 93.9995H19.106H19.1084H19.1109H74.8891H74.8916H74.894H74.9454C75.6137 93.9995 76.2036 93.5485 76.4093 92.8812L93.5031 37.4268C93.8384 37.0171 93.9706 36.4399 93.8066 35.8859ZM74.402 88.8949L69.2295 81.3347C69.6065 80.554 69.8195 79.6727 69.8195 78.7399C69.8195 78.0648 69.7093 77.4181 69.5061 76.8177L75.7336 47.7776C77.6675 46.8938 79.0212 44.8659 79.0212 42.503C79.0212 42.4953 79.0212 42.485 79.0212 42.4773L89.8141 38.9059L74.402 88.8949ZM4.18838 38.9136L12.1196 41.5522C12.1172 41.6037 12.1147 41.6553 12.1147 41.7068C12.1147 44.6959 14.2811 47.1515 17.0522 47.4272L28.6994 67.5903C27.9283 68.5824 27.4656 69.8501 27.4656 71.2313C27.4656 72.7361 28.014 74.1043 28.9099 75.1273L19.5907 88.8795L4.18838 38.9136ZM38.354 71.6487C38.3613 71.5096 38.3686 71.373 38.3686 71.2313C38.3686 70.064 38.0382 68.9792 37.4703 68.0747L46.8727 54.1989L60.7328 74.4574C59.9788 75.1685 59.4158 76.0962 59.127 77.1501L38.354 71.6487ZM41.8765 27.228C42.606 28.5963 43.8471 29.6167 45.3305 30.0006V49.2077L23.0178 41.7815C23.0178 41.7558 23.0202 41.73 23.0202 41.7068C23.0202 40.555 22.6971 39.4831 22.1438 38.5838L41.8765 27.228ZM68.926 39.4908C68.4119 40.3669 68.1157 41.3976 68.1157 42.503C68.1157 42.5649 68.1182 42.6241 68.1206 42.686L48.4051 49.2103V29.8537C49.6021 29.4183 50.6107 28.5576 51.2667 27.4419L68.926 39.4908ZM22.112 44.8788L44.3856 52.2921L35.1154 65.9721C34.4422 65.6603 33.698 65.4851 32.9171 65.4851C32.3321 65.4851 31.7715 65.583 31.2452 65.7634L20.2418 46.7134C20.9933 46.2651 21.6371 45.6364 22.112 44.8788ZM67.0191 73.7178C66.2333 73.2566 65.33 72.9912 64.368 72.9912C64.0938 72.9912 63.827 73.0144 63.565 73.0556L49.3622 52.2921L69.0826 45.7678C69.8733 46.9711 71.0899 47.8421 72.5024 48.1384L67.0191 73.7178ZM73.5697 36.7543C72.7692 36.7543 72.0079 36.9398 71.3249 37.2645L52.077 24.1334C51.9644 21.7395 50.4638 19.7323 48.4051 18.985V4.80254L88.8985 35.8112L78.1399 39.3723C77.1681 37.7979 75.484 36.7543 73.5697 36.7543ZM45.3305 18.8381C43.0956 19.4153 41.4016 21.4458 41.2009 23.9246L19.5784 36.3652C18.9567 36.105 18.2786 35.9581 17.5662 35.9581C15.696 35.9581 14.0461 36.9527 13.0645 38.4678L5.09656 35.8164L45.3305 5.0061V18.8381ZM31.5585 76.7996C31.9918 76.9156 32.4471 76.98 32.9171 76.98C34.6919 76.98 36.2659 76.0859 37.2622 74.7022L59.1784 80.5076C59.8858 82.8138 61.9421 84.4861 64.368 84.4861C65.352 84.4861 66.2773 84.2078 67.0754 83.726L71.8855 90.7579H22.0973L31.5585 76.7996Z" fill="#00008A"/>
</g>
</svg>
