<svg width="30" height="26" viewBox="0 0 30 26" fill="none" xmlns="http://www.w3.org/2000/svg">
<mask id="mask0_2068_7264" style="mask-type:luminance" maskUnits="userSpaceOnUse" x="0" y="3" width="21" height="24">
<path d="M0 3.67773H20.3V26.0009H0V3.67773Z" fill="white"/>
</mask>
<g mask="url(#mask0_2068_7264)">
<path d="M8.05156 20.1425C5.55859 17.5959 4.70625 14.0462 5.43047 10.7566L8.11484 11.66L6.18984 3.69141L0 8.94979L2.7164 9.85319C1.67266 14.1435 2.77812 18.8529 6.03281 22.2079C9.85156 26.112 15.5351 27.0154 20.2125 24.8518L19.5141 21.9493C15.8203 23.9189 11.1461 23.3044 8.05156 20.1425Z" fill="#00008A"/>
</g>
<mask id="mask1_2068_7264" style="mask-type:luminance" maskUnits="userSpaceOnUse" x="9" y="0" width="21" height="23">
<path d="M9.70001 0H30V22.4732H9.70001V0Z" fill="white"/>
</mask>
<g mask="url(#mask1_2068_7264)">
<path d="M27.2859 16.2421C28.325 11.9517 27.2195 7.24159 23.9703 3.88737C20.1453 -0.0167188 14.4937 -0.887397 9.85156 1.2075L10.5469 4.11322C14.2406 2.20906 18.8859 2.82116 21.9484 5.94954C24.4414 8.49853 25.2937 12.0467 24.5664 15.3387L21.8844 14.4353L23.8101 22.4014L30 17.1455L27.2859 16.2421Z" fill="#00008A"/>
</g>
</svg>
