<svg width="94" height="94" viewBox="0 0 94 94" fill="none" xmlns="http://www.w3.org/2000/svg">
<mask id="mask0_2068_6856" style="mask-type:luminance" maskUnits="userSpaceOnUse" x="86" y="71" width="8" height="9">
<path d="M86.7933 71.7529H94V79.2729H86.7933V71.7529Z" fill="white"/>
</mask>
<g mask="url(#mask0_2068_6856)">
<path d="M90.6439 72.1787C88.7933 72.1787 87.2854 73.6866 87.2854 75.5348C87.2854 77.383 88.7933 78.8933 90.6439 78.8933C92.4921 78.8933 94 77.383 94 75.5348C94 73.6866 92.4921 72.1787 90.6439 72.1787Z" fill="#00008A"/>
</g>
<path d="M87.2854 52.0352C85.4372 52.0352 83.9293 53.5431 83.9293 55.3937C83.9293 57.2419 85.4372 58.7498 87.2854 58.7498C89.1336 58.7498 90.6439 57.2419 90.6439 55.3937C90.6439 53.5431 89.1336 52.0352 87.2854 52.0352Z" fill="#00008A"/>
<path d="M36.9293 16.7849C38.7775 16.7849 40.2854 15.277 40.2854 13.4289C40.2854 11.5782 38.7775 10.0703 36.9293 10.0703C35.0787 10.0703 33.5708 11.5782 33.5708 13.4289C33.5708 15.277 35.0787 16.7849 36.9293 16.7849Z" fill="#00008A"/>
<mask id="mask1_2068_6856" style="mask-type:luminance" maskUnits="userSpaceOnUse" x="0" y="0" width="94" height="94">
<path d="M0 0H94V94H0V0Z" fill="white"/>
</mask>
<g mask="url(#mask1_2068_6856)">
<path d="M0 0V92.3207C0 93.246 0.753958 94 1.67927 94H94V90.6488L6.71463 90.6439C4.86401 90.6439 3.35609 89.1335 3.35609 87.2853V0H0Z" fill="#00008A"/>
</g>
<path d="M67.1439 40.2852C65.2933 40.2852 63.7853 41.7931 63.7853 43.6437C63.7853 45.4919 65.2933 46.9998 67.1439 46.9998C68.9921 46.9998 70.5 45.4919 70.5 43.6437C70.5 41.7931 68.9921 40.2852 67.1439 40.2852Z" fill="#00008A"/>
<path d="M63.7854 20.1445C61.9372 20.1445 60.4293 21.6524 60.4293 23.5006C60.4293 25.3488 61.9372 26.8567 63.7854 26.8567C65.6336 26.8567 67.1439 25.3488 67.1439 23.5006C67.1439 21.6524 65.6336 20.1445 63.7854 20.1445Z" fill="#00008A"/>
<path d="M72.1793 62.1064C70.3287 62.1064 68.8207 63.6144 68.8207 65.465C68.8207 67.3132 70.3287 68.8211 72.1793 68.8211C74.0275 68.8211 75.5354 67.3132 75.5354 65.465C75.5354 63.6144 74.0275 62.1064 72.1793 62.1064Z" fill="#00008A"/>
<path d="M45.3208 40.2849C47.1714 40.2849 48.6793 38.777 48.6793 36.9289C48.6793 35.0782 47.1714 33.5703 45.3208 33.5703C43.4726 33.5703 41.9647 35.0782 41.9647 36.9289C41.9647 38.777 43.4726 40.2849 45.3208 40.2849Z" fill="#00008A"/>
<path d="M50.3561 63.7849C52.2067 63.7849 53.7147 62.277 53.7147 60.4289C53.7147 58.5782 52.2067 57.0703 50.3561 57.0703C48.5079 57.0703 47 58.5782 47 60.4289C47 62.277 48.5079 63.7849 50.3561 63.7849Z" fill="#00008A"/>
<path d="M23.5 25.1797C21.6519 25.1797 20.144 26.6876 20.144 28.5358C20.144 30.384 21.6519 31.8943 23.5 31.8943C25.3482 31.8943 26.8561 30.384 26.8561 28.5358C26.8561 26.6876 25.3482 25.1797 23.5 25.1797Z" fill="#00008A"/>
<path d="M16.7855 5.03516C14.9373 5.03516 13.4294 6.54307 13.4294 8.3937C13.4294 10.2419 14.9373 11.7498 16.7855 11.7498C18.6337 11.7498 20.144 10.2419 20.144 8.3937C20.144 6.54307 18.6337 5.03516 16.7855 5.03516Z" fill="#00008A"/>
<path d="M23.5 57.0711C25.3482 57.0711 26.8561 55.5632 26.8561 53.715C26.8561 51.8644 25.3482 50.3564 23.5 50.3564C21.6519 50.3564 20.144 51.8644 20.144 53.715C20.144 55.5632 21.6519 57.0711 23.5 57.0711Z" fill="#00008A"/>
</svg>
